# xmcd
#
# Track frame offsets:
#	150
#	18584
#	33271
#	51415
#	71080
#	88474
#	103358
#	121136
#	138329
#	157148
#	172480
#	189614
#
# Disc length: 2748 seconds
#
# Revision: 3
# Processed by: cddbd v1.5.2PL0 Copyright (c) Steve Scherf et al.
# Submitted via: EasyCDDAExtractor 15.3.0.1
#
DISCID=bb0aba0c
DTITLE=Mijares - Dulce Veneno
DYEAR=2002
DGENRE=Latin
TTITLE0=Acercate
TTITLE1=Buscare Un Lugar
TTITLE2=Mi Unica Verdad
TTITLE3=Dame Tus Alas
TTITLE4=Que Fue
TTITLE5=Yo Sin Ti
TTITLE6=Dulce Veneno
TTITLE7=Quedate
TTITLE8=Terminas, Empiezo
TTITLE9=A Ver
TTITLE10=Huracan
TTITLE11=Solo
EXTD=
EXTT0=
EXTT1=
EXTT2=
EXTT3=
EXTT4=
EXTT5=
EXTT6=
EXTT7=
EXTT8=
EXTT9=
EXTT10=
EXTT11=
PLAYORDER=
